<svg width="46" height="46" viewBox="0 0 46 46" fill="none" xmlns="http://www.w3.org/2000/svg">
<path d="M33 3.45117H13C7.47715 3.45117 3 7.92832 3 13.4512V33.4512C3 38.974 7.47715 43.4512 13 43.4512H33C38.5228 43.4512 43 38.974 43 33.4512V13.4512C43 7.92832 38.5228 3.45117 33 3.45117Z" stroke="#23407A" stroke-width="5" stroke-linecap="round" stroke-linejoin="round"/>
<path d="M30.9994 22.1908C31.2462 23.8553 30.9619 25.5552 30.1869 27.0488C29.4119 28.5424 28.1857 29.7536 26.6827 30.5101C25.1796 31.2667 23.4763 31.53 21.815 31.2627C20.1537 30.9953 18.6189 30.211 17.4291 29.0211C16.2392 27.8313 15.4549 26.2965 15.1875 24.6352C14.9202 22.9739 15.1835 21.2706 15.9401 19.7675C16.6966 18.2645 17.9078 17.0383 19.4014 16.2633C20.895 15.4883 22.5949 15.204 24.2594 15.4508C25.9573 15.7026 27.5291 16.4937 28.7428 17.7074C29.9565 18.9211 30.7476 20.493 30.9994 22.1908Z" stroke="#23407A" stroke-width="5" stroke-linecap="round" stroke-linejoin="round"/>
<path d="M34 12.4512H34.02" stroke="#23407A" stroke-width="5" stroke-linecap="round" stroke-linejoin="round"/>
</svg>
