<svg width="48" height="46" viewBox="0 0 48 46" fill="none" xmlns="http://www.w3.org/2000/svg">
<path d="M32.3998 16.082C35.7415 16.082 38.9464 17.4128 41.3093 19.7817C43.6723 22.1506 44.9998 25.3634 44.9998 28.7135V43.4502H36.5998V28.7135C36.5998 27.5968 36.1573 26.5259 35.3696 25.7362C34.582 24.9466 33.5137 24.503 32.3998 24.503C31.2859 24.503 30.2176 24.9466 29.4299 25.7362C28.6423 26.5259 28.1998 27.5968 28.1998 28.7135V43.4502H19.7998V28.7135C19.7998 25.3634 21.1273 22.1506 23.4903 19.7817C25.8532 17.4128 29.0581 16.082 32.3998 16.082V16.082Z" stroke="#23407A" stroke-width="5" stroke-linecap="round" stroke-linejoin="round"/>
<path d="M11.4 18.1875H3V43.4505H11.4V18.1875Z" stroke="#23407A" stroke-width="5" stroke-linecap="round" stroke-linejoin="round"/>
<path d="M7.2 11.8722C9.51959 11.8722 11.4 9.98706 11.4 7.66167C11.4 5.33627 9.51959 3.45117 7.2 3.45117C4.8804 3.45117 3 5.33627 3 7.66167C3 9.98706 4.8804 11.8722 7.2 11.8722Z" stroke="#23407A" stroke-width="5" stroke-linecap="round" stroke-linejoin="round"/>
</svg>
