<svg width="55" height="46" viewBox="0 0 55 46" fill="none" xmlns="http://www.w3.org/2000/svg">
<path d="M52 3.47359C49.8671 4.97936 47.5056 6.13103 45.0064 6.88426C43.665 5.34056 41.8822 4.24643 39.8993 3.74984C37.9164 3.25325 35.8289 3.37817 33.9192 4.10769C32.0095 4.83721 30.3697 6.13614 29.2216 7.82881C28.0736 9.52147 27.4726 11.5262 27.5 13.5719V15.801C23.5859 15.9026 19.7074 15.0338 16.21 13.2719C12.7126 11.51 9.7048 8.90979 7.45455 5.70278C7.45455 5.70278 -1.45455 25.7656 18.5909 34.6823C14.0039 37.7987 8.53958 39.3613 3 39.1407C23.0455 50.2867 47.5455 39.1407 47.5455 13.505C47.5434 12.884 47.4838 12.2646 47.3673 11.6547C49.6404 9.41104 51.2446 6.57822 52 3.47359V3.47359Z" stroke="#23407A" stroke-width="5" stroke-linecap="round" stroke-linejoin="round"/>
</svg>
